<svg width="400" height="300" xmlns="http://www.w3.org/2000/svg" xmlns:xlink="http://www.w3.org/1999/xlink" version="1.1" baseProfile="full" viewBox="0 0 400 300">
<rect width="400" height="300" x="0" y="0" fill="none"></rect>
<path d="M40 230.5L360 230.5" fill="transparent" stroke="#E0E6F1" class="zr0-cls-0"></path>
<path d="M40 196.5L360 196.5" fill="transparent" stroke="#E0E6F1" class="zr0-cls-0"></path>
<path d="M40 162.5L360 162.5" fill="transparent" stroke="#E0E6F1" class="zr0-cls-0"></path>
<path d="M40 128.5L360 128.5" fill="transparent" stroke="#E0E6F1" class="zr0-cls-0"></path>
<path d="M40 94.5L360 94.5" fill="transparent" stroke="#E0E6F1" class="zr0-cls-0"></path>
<path d="M40 60.5L360 60.5" fill="transparent" stroke="#E0E6F1" class="zr0-cls-0"></path>
<path d="M40 230.5L360 230.5" fill="transparent" stroke="#6E7079" stroke-linecap="round" class="zr0-cls-0"></path>
<path d="M40.5 230L40.5 235" fill="transparent" stroke="#6E7079" class="zr0-cls-0"></path>
<path d="M85.5 230L85.5 235" fill="transparent" stroke="#6E7079" class="zr0-cls-0"></path>
<path d="M131.5 230L131.5 235" fill="transparent" stroke="#6E7079" class="zr0-cls-0"></path>
<path d="M177.5 230L177.5 235" fill="transparent" stroke="#6E7079" class="zr0-cls-0"></path>
<path d="M223.5 230L223.5 235" fill="transparent" stroke="#6E7079" class="zr0-cls-0"></path>
<path d="M268.5 230L268.5 235" fill="transparent" stroke="#6E7079" class="zr0-cls-0"></path>
<path d="M314.5 230L314.5 235" fill="transparent" stroke="#6E7079" class="zr0-cls-0"></path>
<path d="M360.5 230L360.5 235" fill="transparent" stroke="#6E7079" class="zr0-cls-0"></path>
<text dominant-baseline="central" text-anchor="end" style="font-size:12px;font-family:sans-serif;" transform="translate(32 230)" fill="#6E7079">0</text>
<text dominant-baseline="central" text-anchor="end" style="font-size:12px;font-family:sans-serif;" transform="translate(32 196)" fill="#6E7079">300</text>
<text dominant-baseline="central" text-anchor="end" style="font-size:12px;font-family:sans-serif;" transform="translate(32 162)" fill="#6E7079">600</text>
<text dominant-baseline="central" text-anchor="end" style="font-size:12px;font-family:sans-serif;" transform="translate(32 128)" fill="#6E7079">900</text>
<text dominant-baseline="central" text-anchor="end" style="font-size:12px;font-family:sans-serif;" transform="translate(32 94)" fill="#6E7079">1,200</text>
<text dominant-baseline="central" text-anchor="end" style="font-size:12px;font-family:sans-serif;" transform="translate(32 60)" fill="#6E7079">1,500</text>
<text dominant-baseline="central" text-anchor="middle" style="font-size:12px;font-family:sans-serif;" y="6" transform="translate(62.8571 238)" fill="#6E7079">Mon</text>
<text dominant-baseline="central" text-anchor="middle" style="font-size:12px;font-family:sans-serif;" y="6" transform="translate(108.5714 238)" fill="#6E7079">Tue</text>
<text dominant-baseline="central" text-anchor="middle" style="font-size:12px;font-family:sans-serif;" y="6" transform="translate(154.2857 238)" fill="#6E7079">Wed</text>
<text dominant-baseline="central" text-anchor="middle" style="font-size:12px;font-family:sans-serif;" y="6" transform="translate(200 238)" fill="#6E7079">Thu</text>
<text dominant-baseline="central" text-anchor="middle" style="font-size:12px;font-family:sans-serif;" y="6" transform="translate(245.7143 238)" fill="#6E7079">Fri</text>
<text dominant-baseline="central" text-anchor="middle" style="font-size:12px;font-family:sans-serif;" y="6" transform="translate(291.4286 238)" fill="#6E7079">Sat</text>
<text dominant-baseline="central" text-anchor="middle" style="font-size:12px;font-family:sans-serif;" y="6" transform="translate(337.1429 238)" fill="#6E7079">Sun</text>
<g clip-path="url(#zr0-c0)">
<path d="M62.9 137.1L108.6 124.4L154.3 127.9L200 124.1L245.7 83.8L291.4 79.3L337.1 80.4" fill="transparent" stroke="#5470c6" stroke-width="2" stroke-linejoin="bevel" class="zr0-cls-3"></path>
</g>
<path d="M1 0A1 1 0 1 1 1 -0.1A1 1 0 0 1 1 0" transform="matrix(2,0,0,2,62.8571,137.0667)" fill="#fff" stroke="#5470c6" ecmeta_series_index="0" ecmeta_data_index="0" ecmeta_ssr_type="chart" class="zr0-cls-4"></path>
<path d="M1 0A1 1 0 1 1 1 -0.1A1 1 0 0 1 1 0" transform="matrix(2,0,0,2,108.5714,124.3733)" fill="#fff" stroke="#5470c6" ecmeta_series_index="0" ecmeta_data_index="1" ecmeta_ssr_type="chart" class="zr0-cls-4"></path>
<path d="M1 0A1 1 0 1 1 1 -0.1A1 1 0 0 1 1 0" transform="matrix(2,0,0,2,154.2857,127.8867)" fill="#fff" stroke="#5470c6" ecmeta_series_index="0" ecmeta_data_index="2" ecmeta_ssr_type="chart" class="zr0-cls-4"></path>
<path d="M1 0A1 1 0 1 1 1 -0.1A1 1 0 0 1 1 0" transform="matrix(2,0,0,2,200,124.1467)" fill="#fff" stroke="#5470c6" ecmeta_series_index="0" ecmeta_data_index="3" ecmeta_ssr_type="chart" class="zr0-cls-4"></path>
<path d="M1 0A1 1 0 1 1 1 -0.1A1 1 0 0 1 1 0" transform="matrix(2,0,0,2,245.7143,83.8)" fill="#fff" stroke="#5470c6" ecmeta_series_index="0" ecmeta_data_index="4" ecmeta_ssr_type="chart" class="zr0-cls-4"></path>
<path d="M1 0A1 1 0 1 1 1 -0.1A1 1 0 0 1 1 0" transform="matrix(2,0,0,2,291.4286,79.2667)" fill="#fff" stroke="#5470c6" ecmeta_series_index="0" ecmeta_data_index="5" ecmeta_ssr_type="chart" class="zr0-cls-4"></path>
<path d="M1 0A1 1 0 1 1 1 -0.1A1 1 0 0 1 1 0" transform="matrix(2,0,0,2,337.1429,80.4)" fill="#fff" stroke="#5470c6" ecmeta_series_index="0" ecmeta_data_index="6" ecmeta_ssr_type="chart" class="zr0-cls-4"></path>
<defs >
<clipPath id="zr0-c0">
<path d="M39 59l322 0l0 172l-322 0Z" fill="#000" class="zr0-cls-1 zr0-cls-2"></path>
</clipPath>
</defs>
<style ><![CDATA[
.zr0-cls-0:hover {
pointer-events:none;
}
.zr0-cls-1 {
animation:zr0-ani-0 1s linear both;
}
.zr0-cls-2:hover {
cursor:pointer;
fill:rgba(0,0,0,1);
}
.zr0-cls-3:hover {
cursor:pointer;
}
.zr0-cls-4:hover {
cursor:pointer;
fill:rgba(255,255,255,1);
}
@keyframes zr0-ani-0 {
0% {
d:path("M39 59l0 0l0 172l0 0Z");
}
100% {
d:path("M39 59l322 0l0 172l-322 0Z");
}
}
]]>

</style>
</svg>